<svg width="13" height="13" viewBox="0 0 13 13" fill="none" xmlns="http://www.w3.org/2000/svg">
<path d="M1.84314 3.87765C1.97489 3.73908 2.13088 3.6698 2.31112 3.6698C2.49136 3.6698 2.64718 3.73908 2.77858 3.87765L6.63892 7.93769L10.5124 3.86379C10.6354 3.73446 10.7891 3.6698 10.9736 3.6698C11.158 3.6698 11.3161 3.73908 11.4479 3.87765C11.5796 4.01622 11.6455 4.18028 11.6455 4.36984C11.6455 4.55941 11.5796 4.72329 11.4479 4.86148L7.00783 9.51737C6.95513 9.57279 6.89803 9.61215 6.83655 9.63543C6.77506 9.65871 6.70919 9.67016 6.63892 9.66979C6.56865 9.66979 6.50278 9.65815 6.44129 9.63487C6.37981 9.61159 6.32271 9.57242 6.27001 9.51737L1.82996 4.84763C1.70699 4.7183 1.64551 4.55885 1.64551 4.36929C1.64551 4.17973 1.71138 4.01585 1.84314 3.87765Z" fill="#202020"/>
</svg>
